<svg width="788" height="788" viewBox="0 0 788 788" fill="none" xmlns="http://www.w3.org/2000/svg">
<rect width="788" height="788" fill="#E5E5E5"/>
<g id="Frame 2">
<g id="astro">
<g id="lines">
<path id="Vector" d="M393.993 393.994L328.082 112.885" stroke="white" stroke-width="0.75" stroke-miterlimit="10"/>
<path id="Vector_2" d="M393.994 393.994L670.596 249.214" stroke="white" stroke-width="0.75" stroke-miterlimit="10"/>
<path id="Vector_3" d="M507.789 129.222L516.803 107.251" stroke="white" stroke-width="0.75" stroke-miterlimit="10"/>
<path id="Vector_4" d="M467.792 221.609L495.959 155.698" stroke="white" stroke-width="0.75" stroke-miterlimit="10"/>
<path id="Vector_5" d="M393.994 393.993L462.158 234.566" stroke="white" stroke-width="0.75" stroke-miterlimit="10"/>
<path id="Vector_6" d="M142.742 606.375L394.193 393.994L465.538 462.072" stroke="white" stroke-width="0.75" stroke-miterlimit="10"/>
</g>
<g id="outer">
<path id="outer-hidden-3" d="M393.989 578.066C495.652 578.066 578.066 495.652 578.066 393.989C578.066 292.326 495.652 209.912 393.989 209.912C292.326 209.912 209.912 292.326 209.912 393.989C209.912 495.652 292.326 578.066 393.989 578.066Z" stroke="white" stroke-width="0.5" stroke-miterlimit="10"/>
<path id="outer-hidden-2" d="M393.989 643.994C532.063 643.994 643.994 532.063 643.994 393.989C643.994 255.915 532.063 143.983 393.989 143.983C255.915 143.983 143.983 255.915 143.983 393.989C143.983 532.063 255.915 643.994 393.989 643.994Z" stroke="white" stroke-width="0.5" stroke-miterlimit="10"/>
<path id="outer-hidden-1" d="M393.989 676.632C550.088 676.632 676.632 550.088 676.632 393.989C676.632 237.889 550.088 111.346 393.989 111.346C237.889 111.346 111.346 237.889 111.346 393.989C111.346 550.088 237.889 676.632 393.989 676.632Z" stroke="white" stroke-width="0.5" stroke-miterlimit="10"/>
<path id="outer-6" d="M393.993 424.977C410.794 424.977 424.414 411.231 424.414 394.274C424.414 377.318 410.794 363.572 393.993 363.572C377.193 363.572 363.573 377.318 363.573 394.274C363.573 411.231 377.193 424.977 393.993 424.977Z" stroke="#FFAB05" stroke-width="0.75" stroke-miterlimit="10"/>
<path id="outer-5" d="M393.993 465.538C433.506 465.538 465.538 433.632 465.538 394.274C465.538 354.917 433.506 323.011 393.993 323.011C354.48 323.011 322.449 354.917 322.449 394.274C322.449 433.632 354.48 465.538 393.993 465.538Z" stroke="white" stroke-width="0.75" stroke-miterlimit="10"/>
<path id="outer-4" d="M393.993 539.337C473.953 539.337 538.773 474.391 538.773 394.275C538.773 314.16 473.953 249.214 393.993 249.214C314.034 249.214 249.213 314.16 249.213 394.275C249.213 474.391 314.034 539.337 393.993 539.337Z" stroke="#FFAB05" stroke-width="0.75" stroke-miterlimit="10"/>
<path id="outer-3" d="M625.528 393.998C625.528 402.513 612.479 410.228 611.554 418.511C610.608 426.921 621.627 437.369 619.776 445.516C617.926 453.662 603.448 458.403 600.683 466.297C597.917 474.192 606.287 486.9 602.649 494.448C599.011 501.995 583.86 503.34 579.391 510.446C574.923 517.552 580.274 531.753 575.017 538.323C569.76 544.893 554.746 542.801 548.795 548.751C542.844 554.7 544.946 569.774 538.354 575.03C531.761 580.286 517.62 574.893 510.47 579.392C503.32 583.891 502.059 598.975 494.478 602.644C486.897 606.312 474.312 597.893 466.321 600.689C458.33 603.485 453.798 617.886 445.524 619.767C437.249 621.649 426.966 610.612 418.523 611.558C410.238 612.472 402.52 625.528 393.993 625.528C385.466 625.528 377.749 612.472 369.474 611.558C361.062 610.612 350.611 621.617 342.463 619.767C334.314 617.917 329.572 603.453 321.665 600.689C313.759 597.924 301.068 606.291 293.508 602.644C285.949 598.996 284.624 583.87 277.516 579.392C270.408 574.914 256.204 580.275 249.622 575.03C243.04 569.784 245.153 554.763 239.192 548.751C233.23 542.738 218.226 544.914 212.969 538.323C207.712 531.732 213.095 517.584 208.595 510.446C204.095 503.309 189.017 502.037 185.337 494.448C181.657 486.858 190.1 474.286 187.304 466.297C184.507 458.309 170.092 453.778 168.21 445.505C166.328 437.233 177.378 426.963 176.432 418.511C175.507 410.228 162.458 402.513 162.458 393.998C162.458 385.484 175.507 377.758 176.432 369.475C177.378 361.065 166.359 350.617 168.21 342.481C170.06 334.345 184.538 329.583 187.304 321.689C190.069 313.794 181.7 301.086 185.337 293.539C188.975 285.991 204.126 284.646 208.595 277.54C213.064 270.434 207.722 256.233 212.969 249.663C218.216 243.093 233.24 245.185 239.192 239.235C245.143 233.286 243.04 218.212 249.632 212.956C256.225 207.701 270.377 213.093 277.516 208.594C284.655 204.095 285.927 189.011 293.508 185.342C301.089 181.674 313.675 190.094 321.665 187.297C329.656 184.501 334.188 170.1 342.463 168.219C350.737 166.337 361.02 177.375 369.474 176.439C377.749 175.514 385.466 162.458 393.993 162.458C402.52 162.458 410.238 175.514 418.523 176.439C426.934 177.375 437.375 166.369 445.524 168.219C453.672 170.069 458.414 184.533 466.321 187.297C474.227 190.062 486.929 181.695 494.478 185.342C502.027 188.99 503.363 204.116 510.47 208.594C517.578 213.072 531.793 207.711 538.364 212.956C544.936 218.202 542.844 233.233 548.795 239.235C554.746 245.238 569.76 243.083 575.017 249.663C580.274 256.243 574.891 270.402 579.391 277.54C583.891 284.677 598.969 285.949 602.649 293.539C606.329 301.128 597.886 313.7 600.683 321.689C603.479 329.678 617.894 334.208 619.776 342.481C621.659 350.753 610.608 361.023 611.554 369.475C612.479 377.758 625.528 385.473 625.528 393.998Z" stroke="white" stroke-width="0.75" stroke-miterlimit="10"/>
<path id="outer-2" d="M393.993 706.087C566.357 706.087 706.086 566.358 706.086 393.994C706.086 221.63 566.357 81.9009 393.993 81.9009C221.629 81.9009 81.9001 221.63 81.9001 393.994C81.9001 566.358 221.629 706.087 393.993 706.087Z" stroke="white" stroke-width="0.5" stroke-miterlimit="10"/>
<path id="outer-1" d="M393.993 722.986C575.691 722.986 722.986 575.691 722.986 393.993C722.986 212.295 575.691 65 393.993 65C212.295 65 65 212.295 65 393.993C65 575.691 212.295 722.986 393.993 722.986Z" stroke="white" stroke-width="0.5" stroke-miterlimit="10"/>
</g>
<g id="fixed-shapes">
<path id="Vector_7" d="M393.993 404.697C399.594 404.697 404.133 400.031 404.133 394.275C404.133 388.519 399.594 383.853 393.993 383.853C388.393 383.853 383.853 388.519 383.853 394.275C383.853 400.031 388.393 404.697 393.993 404.697Z" fill="white"/>
<path id="Vector_8" d="M677.919 400.754H647.498V430.611H677.919V400.754Z" stroke="#FFAB05" stroke-width="0.75" stroke-miterlimit="10"/>
<path id="Vector_9" d="M456.525 146.685H450.328V153.445H456.525V146.685Z" fill="white"/>
<path id="Vector_10" d="M454.271 104.997H450.328V108.94H454.271V104.997Z" fill="#FFAB05"/>
<path id="Vector_11" d="M122.461 428.921H114.575V436.808H122.461V428.921Z" stroke="#FFAB05" stroke-width="0.75" stroke-miterlimit="10"/>
<path id="Vector_12" d="M393.994 397.374C395.86 397.374 397.374 395.86 397.374 393.994C397.374 392.127 395.86 390.613 393.994 390.613C392.127 390.613 390.613 392.127 390.613 393.994C390.613 395.86 392.127 397.374 393.994 397.374Z" fill="black"/>
<path id="Vector_13" d="M223.3 348.362H212.597V359.066H223.3V348.362Z" fill="white"/>
<path id="Vector_14" d="M240.764 369.207H234.567V375.403H240.764V369.207Z" fill="white"/>
<path id="Vector_15" d="M238.51 326.955H234.567V330.899H238.51V326.955Z" fill="#FFAB05"/>
<path id="Vector_16" d="M364.136 657.074H356.25V664.398H364.136V657.074Z" fill="white"/>
<path id="Vector_17" d="M377.093 671.722H372.586V676.793H377.093V671.722Z" fill="white"/>
<path id="Vector_18" d="M657.639 334.279H649.752V342.166H657.639V334.279Z" stroke="white" stroke-miterlimit="10"/>
<path id="Vector_19" d="M670.596 349.489H665.526V353.996H670.596V349.489Z" stroke="white" stroke-miterlimit="10"/>
<path id="Vector_20" d="M375.403 640.739H372.586V644.119H375.403V640.739Z" fill="#FFAB05"/>
<path id="Vector_21" d="M439.061 126.405H428.357V137.109H439.061V126.405Z" fill="white"/>
<path id="Vector_22" d="M662.672 400.654L647.563 415.763L662.672 430.872L677.781 415.763L662.672 400.654Z" stroke="#FFAB05" stroke-width="0.75" stroke-miterlimit="10"/>
<path id="Vector_23" d="M532.324 261.033L525.598 267.759L532.324 274.484L539.05 267.758L532.324 261.033Z" fill="#FFAB05"/>
<path id="Vector_24" d="M532.325 254.001L518.562 267.765L532.325 281.528L546.089 267.765L532.325 254.001Z" stroke="#FFAB05" stroke-width="0.75" stroke-miterlimit="10"/>
<path id="Vector_25" d="M619.331 221.609V242.453" stroke="#FFAB05" stroke-width="1.15" stroke-miterlimit="10"/>
<path id="Vector_26" d="M608.628 232.313H629.472" stroke="#FFAB05" stroke-width="1.15" stroke-miterlimit="10"/>
<path id="Vector_27" d="M315.125 636.795V657.639" stroke="#FFAB05" stroke-width="1.15" stroke-miterlimit="10"/>
<path id="Vector_28" d="M304.985 646.936H325.829" stroke="#FFAB05" stroke-width="1.15" stroke-miterlimit="10"/>
<path id="Vector_29" d="M577.081 361.319V382.163" stroke="white" stroke-width="1.15" stroke-miterlimit="10"/>
<path id="Vector_30" d="M566.376 372.023H587.22" stroke="white" stroke-width="1.15" stroke-miterlimit="10"/>
<path id="Vector_31" d="M325.829 298.224V319.068" stroke="white" stroke-width="1.15" stroke-miterlimit="10"/>
<path id="Vector_32" d="M315.125 308.365H335.969" stroke="white" stroke-width="1.15" stroke-miterlimit="10"/>
<path id="Vector_33" d="M561.307 169.219V179.922" stroke="white" stroke-width="1.15" stroke-miterlimit="10"/>
<path id="Vector_34" d="M556.237 174.288H566.377" stroke="white" stroke-width="1.15" stroke-miterlimit="10"/>
<path id="Vector_35" d="M341.602 388.923V399.063" stroke="white" stroke-width="1.15" stroke-miterlimit="10"/>
<path id="Vector_36" d="M335.969 393.994H346.672" stroke="white" stroke-width="1.15" stroke-miterlimit="10"/>
<path id="Vector_37" d="M155.135 262.733V272.874" stroke="#FFAB05" stroke-width="1.15" stroke-miterlimit="10"/>
<path id="Vector_38" d="M149.501 267.804H160.205" stroke="#FFAB05" stroke-width="1.15" stroke-miterlimit="10"/>
</g>
<g id="circles">
<path id="Vector_39" d="M394.7 416.952C406.99 416.952 416.952 406.99 416.952 394.7C416.952 382.411 406.99 372.448 394.7 372.448C382.411 372.448 372.448 382.411 372.448 394.7C372.448 406.99 382.411 416.952 394.7 416.952Z" stroke="white" stroke-width="0.75" stroke-miterlimit="10"/>
<path id="Vector_40" d="M394.7 416.299C406.989 416.299 416.952 406.337 416.952 394.047C416.952 381.758 406.989 371.795 394.7 371.795C382.41 371.795 372.448 381.758 372.448 394.047C372.448 406.337 382.41 416.299 394.7 416.299Z" stroke="#FFAB05" stroke-width="0.75" stroke-miterlimit="10"/>
<path id="Vector_41" d="M394.7 416.299C406.989 416.299 416.952 406.337 416.952 394.047C416.952 381.758 406.989 371.795 394.7 371.795C382.41 371.795 372.448 381.758 372.448 394.047C372.448 406.337 382.41 416.299 394.7 416.299Z" fill="#FFAB05"/>
<path id="Vector_42" d="M393.967 405.131C399.722 405.131 404.389 400.591 404.389 394.99C404.389 389.39 399.722 384.85 393.967 384.85C388.211 384.85 383.545 389.39 383.545 394.99C383.545 400.591 388.211 405.131 393.967 405.131Z" fill="white"/>
<g id="Group-531">
<path id="Vector_43" d="M394.172 405.158C400.239 405.158 405.158 400.239 405.158 394.172C405.158 388.106 400.239 383.187 394.172 383.187C388.105 383.187 383.187 388.106 383.187 394.172C383.187 400.239 388.105 405.158 394.172 405.158Z" fill="#FFAB05"/>
<path id="Vector_44" d="M393.891 447.972C423.759 447.972 447.972 423.759 447.972 393.891C447.972 364.023 423.759 339.81 393.891 339.81C364.023 339.81 339.81 364.023 339.81 393.891C339.81 423.759 364.023 447.972 393.891 447.972Z" stroke="white" stroke-width="0.5" stroke-miterlimit="10"/>
</g>
<path id="Vector_45" d="M393.864 403.441C398.842 403.441 402.877 399.279 402.877 394.146C402.877 389.012 398.842 384.85 393.864 384.85C388.886 384.85 384.85 389.012 384.85 394.146C384.85 399.279 388.886 403.441 393.864 403.441Z" fill="white"/>
<g id="Group-532">
<path id="Vector_46" d="M394.199 401.804C398.71 401.804 402.367 398.273 402.367 393.917C402.367 389.562 398.71 386.031 394.199 386.031C389.688 386.031 386.03 389.562 386.03 393.917C386.03 398.273 389.688 401.804 394.199 401.804Z" fill="white"/>
<path id="Vector_47" d="M394.199 411.381C403.689 411.381 411.381 403.689 411.381 394.199C411.381 384.71 403.689 377.017 394.199 377.017C384.71 377.017 377.017 384.71 377.017 394.199C377.017 403.689 384.71 411.381 394.199 411.381Z" stroke="white" stroke-width="0.5" stroke-miterlimit="10"/>
</g>
<path id="Vector_48" d="M394.119 399.47C397.074 399.47 399.47 397.074 399.47 394.119C399.47 391.163 397.074 388.767 394.119 388.767C391.163 388.767 388.767 391.163 388.767 394.119C388.767 397.074 391.163 399.47 394.119 399.47Z" fill="white"/>
</g>
</g>
</g>
</svg>
